<?xml version="1.0" encoding="utf-8"?>
<!-- Svg Vector Icons : http://www.onlinewebfonts.com/icon -->
<!DOCTYPE svg PUBLIC "-//W3C//DTD SVG 1.1//EN" "http://www.w3.org/Graphics/SVG/1.1/DTD/svg11.dtd">
<svg version="1.1" xmlns="http://www.w3.org/2000/svg" xmlns:xlink="http://www.w3.org/1999/xlink" x="0px" y="0px" viewBox="0 0 1000 1000" enable-background="new 0 0 1000 1000" xml:space="preserve">
<metadata> Svg Vector Icons : http://www.onlinewebfonts.com/icon </metadata>
<g><g transform="translate(0.000000,511.000000) scale(0.100000,-0.100000)"><path d="M5683.7,4748.7c-105.3-90-203-262.4-239.4-421.4c-53.7-245.2-9.6-490.3,176.2-967.2c245.2-630.1,258.6-835.1,70.9-1051.5c-74.7-84.3-90-153.2-55.5-235.6c28.7-69,113-126.4,183.9-126.4c74.7,0,153.2,57.5,239.4,174.3c113,153.2,162.8,316,162.8,532.5c0,212.6-46,396.5-189.6,771.9c-174.3,457.8-199.2,545.9-191.5,720.2c7.7,130.2,15.3,160.9,65.1,231.8c143.7,204.9,153.2,283.5,44.1,375.4C5871.4,4819.6,5766.1,4817.7,5683.7,4748.7z"/><path d="M7284.9,4721.9c-99.6-91.9-189.6-260.5-222.2-415.6c-47.9-231.8,3.8-484.6,208.8-1019c220.3-576.5,229.8-722.1,53.6-957.7c-61.3-84.3-78.5-122.6-78.5-185.8c0-141.7,143.7-233.7,279.6-178.1c70.9,30.6,189.6,182,258.6,335.2c44.1,93.9,53.6,147.5,61.3,306.5c9.6,239.4-32.6,413.7-212.6,881.1c-220.3,574.6-229.8,754.6-49.8,963.4c122.6,139.8,40.2,348.6-134.1,348.6C7382.6,4800.5,7355.8,4787,7284.9,4721.9z"/><path d="M8903.4,4708.5c-176.2-182-249-432.9-210.7-718.3c24.9-182,80.4-362,220.3-720.2c126.4-327.5,162.8-461.6,162.8-616.7c0-134.1-38.3-237.5-122.6-337.1c-103.4-122.6-97.7-264.3,13.4-333.3c99.6-63.2,197.3-40.2,295,69c176.2,191.5,250.9,452,214.5,741.2c-23,182-63.2,316-218.4,724c-141.7,373.5-170.5,488.4-159,655c5.7,99.6,19.2,141.7,63.2,206.9c122.6,174.3,128.3,189.6,116.8,258.6c-17.2,91.9-107.2,162.8-208.8,162.8C9001,4800.5,8981.9,4789,8903.4,4708.5z"/><path d="M2730.2,3536.3c-134.1-51.7-247.1-153.2-316-281.6c-47.9-90-74.7-118.7-139.8-147.5c-105.3-47.9-226-168.6-285.4-289.2c-38.3-78.5-47.9-124.5-47.9-258.6c0-191.5,46-306.5,172.4-430.9c153.2-155.1,413.7-222.2,603.3-155.1l86.2,28.7l164.7-162.8l166.6-164.7l-55.5-120.7c-28.7-65.1-69-191.5-86.2-281.6l-34.5-160.9h-325.6c-222.2,1.9-363.9-7.7-438.6-24.9l-111.1-26.8l-208.8,206.9l-206.9,206.9l26.8,76.6c76.6,218.4,3.8,482.7-182,649.3c-116.8,105.3-233.7,149.4-398.4,149.4c-229.8,0-432.9-120.7-534.4-316c-44-84.3-72.8-114.9-141.7-147.5c-111.1-55.5-229.8-174.3-287.3-293c-67-137.9-67-379.2,0-517.1c132.2-270.1,465.4-419.5,727.8-327.5l86.2,30.6l208.8-208.8l208.8-208.8l-32.6-155.1c-76.6-388.8-3.8-898.3,182-1268c72.8-147.5,258.6-409.9,350.5-494.2c26.8-26.8,49.8-67,49.8-93.8c0-116.8,65.1-469.3,118.8-635.9c114.9-362,306.5-672.3,576.5-932.8l141.7-137.9l-869.6-5.7l-871.5-5.7l-55.5-63.2c-72.8-80.4-76.6-187.7-7.7-268.2c95.8-113,808.3-386.9,1398.2-536.3c917.4-231.8,1674-325.6,2796.4-342.9c934.7-13.4,1509.3,21.1,2288.8,139.8c846.6,128.3,1716.1,375.4,2225.6,632.1c218.3,109.2,268.1,195.4,195.4,335.2c-57.5,113-63.2,113-1141.6,113h-980.6l141.7,88.1c476.9,295,1022.8,791,1359.9,1233.5c597.6,783.4,771.9,1446.1,561.2,2114.5c-256.6,815.9-1051.5,1358-2126,1449.9c-446.3,38.3-810.2-36.4-1382.9-279.6l-210.7-90l-360.1,362c-440.5,442.4-695.3,628.2-1026.6,745.1c-218.4,78.5-584.2,109.2-741.2,65.1c-67-19.2-67-19.2-260.5,174.3l-195.4,195.4l26.8,76.6c46,130.2,34.5,312.2-28.7,444.4c-65.1,139.8-212.6,279.6-340.9,323.7C3042.4,3586.1,2845.2,3582.3,2730.2,3536.3z M3092.2,3107.3c84.3-84.3,86.2-160.9,7.7-279.6c-38.3-59.4-57.5-109.2-57.5-160.9c0-70.9,15.3-90,233.7-310.3c128.3-130.2,229.8-239.4,224.1-241.3c-3.8-3.8-30.6-26.8-61.3-51.7l-51.7-47.9l-216.4,214.5c-118.8,116.8-239.4,222.2-270.1,231.8c-67,26.8-137.9,9.6-218.3-51.7c-118.8-90-304.5-24.9-340.9,120.7c-26.8,105.3,99.6,239.4,227.9,239.4c70.9,0,143.6,69,168.6,159c40.2,147.5,61.3,187.7,111.1,214.5C2937.1,3191.6,3019.4,3180.1,3092.2,3107.3z M1253.5,1881.5c84.3-84.3,86.2-160.9,7.7-279.6c-38.3-59.4-57.5-109.2-57.5-160.9c0-70.9,15.3-90,256.7-335.2L1717,845.3l-57.5-53.6l-59.4-53.6l-241.3,239.4c-134.1,132.2-266.2,249-295,258.6c-69,26.8-139.8,9.6-220.3-51.7c-118.8-90-304.5-24.9-340.9,120.7c-26.8,105.3,99.6,239.4,227.9,239.4c70.9,0,143.7,69,168.6,159c40.2,147.5,61.3,187.7,111.1,214.5C1098.4,1965.8,1180.7,1954.3,1253.5,1881.5z M4452.1,1908.3c183.9-46,373.5-139.8,553.5-272c126.4-91.9,699.1-653.1,699.1-683.8c0-7.7-36.4-34.5-80.4-59.4c-256.7-143.7-771.9-515.2-1158.8-837l-74.7-59.4l-199.2,247.1c-109.2,137.9-258.6,306.5-331.4,375.4C3732,739.9,3481,916.2,3406.3,941.1c-47.9,15.3-49.8,101.5-9.6,273.9c97.7,415.6,438.6,729.7,796.8,731.7C4252.9,1946.6,4367.8,1929.4,4452.1,1908.3z M7861.4,1094.3c375.4-65.1,685.7-182,948.1-358.2c584.2-390.7,812.1-1034.3,597.6-1677.8c-291.1-871.5-1402-1949.8-2369.3-2298.4c-335.2-122.6-314.1-120.7-1917.2-114.9l-1455.7,5.7l-134.1,46c-444.4,147.5-768.1,430.9-976.8,854.2c-114.9,229.8-178.1,465.4-206.9,770l-24.9,250.9L2192-1290.3c-323.7,344.8-455.9,676.1-457.8,1158.8c0,319.9,57.5,486.5,231.7,653.1c72.8,70.9,262.4,157.1,396.5,182c149.4,28.7,440.5,9.6,618.7-40.2c363.9-101.5,578.4-273.9,984.5-787.2c80.4-101.5,191.5-235.6,250.9-300.7c162.8-183.9,189.6-373.5,84.3-603.3c-82.4-182-222.2-298.8-358.2-300.7c-91.9-1.9-172.4-101.5-172.4-210.7c0-44,19.2-80.4,67-128.3c67-67,70.9-68.9,183.9-57.5c325.6,28.7,635.9,344.8,725.9,739.3c38.3,160.9,17.2,430.9-42.1,561.2l-49.8,107.2l195.4,160.9c745.1,624.4,1660.6,1130.1,2262,1248.8C7294.5,1128.8,7654.6,1128.8,7861.4,1094.3z M8518.4-3787.9c-15.4-17.2-475-124.5-771.9-183.9c-729.7-141.7-1413.5-201.1-2338.6-201.1c-1068.8,0-1886.6,84.3-2710.2,277.7c-511.4,120.7-743.1,111.1,2698.7,113C7118.3-3780.3,8522.2-3784.1,8518.4-3787.9z"/><path d="M7532,299.4c-69-26.8-122.6-113-122.6-197.3c0-72.8,13.4-90,340.9-423.3c409.9-415.6,434.8-457.8,434.8-710.6c0-268.1-63.2-362-406.1-620.6c-86.2-63.2-160.9-116.8-164.7-116.8c-3.8,0,5.7,49.8,21.1,111.1c70.9,279.6-109.2,609.1-385,706.8c-84.3,28.7-162.8,34.5-526.7,34.5h-429l-55.5-63.2c-76.6-86.2-76.6-189.6,0-275.8l55.5-63.2l425.2-9.6l425.2-9.6l46-53.6c28.7-34.5,46-78.5,46-118.8c0-36.4-57.5-235.6-126.4-444.4c-114.9-348.6-122.6-385-103.4-452c24.9-86.2,95.8-137.9,193.4-137.9c61.3,0,132.2,47.9,593.7,396.5c362,270.1,545.9,423.3,593.8,486.5c250.9,335.2,287.3,745.1,101.5,1103.2c-59.4,114.9-134.1,201.1-409.9,482.7C7710.1,301.3,7645,345.4,7532,299.4z"/></g></g>
</svg>