<?xml version="1.0" encoding="UTF-8" standalone="no"?>
<!-- Created with Inkscape (http://www.inkscape.org/) -->

<svg
   width="297mm"
   height="210mm"
   viewBox="0 0 297 210"
   version="1.1"
   id="svg278"
   inkscape:version="1.2.1 (9c6d41e410, 2022-07-14)"
   sodipodi:docname="logo.svg"
   xmlns:inkscape="http://www.inkscape.org/namespaces/inkscape"
   xmlns:sodipodi="http://sodipodi.sourceforge.net/DTD/sodipodi-0.dtd"
   xmlns="http://www.w3.org/2000/svg"
   xmlns:svg="http://www.w3.org/2000/svg">
  <sodipodi:namedview
     id="namedview280"
     pagecolor="#505050"
     bordercolor="#eeeeee"
     borderopacity="1"
     inkscape:showpageshadow="0"
     inkscape:pageopacity="0"
     inkscape:pagecheckerboard="0"
     inkscape:deskcolor="#505050"
     inkscape:document-units="mm"
     showgrid="false"
     inkscape:zoom="0.51276155"
     inkscape:cx="291.55852"
     inkscape:cy="363.71682"
     inkscape:window-width="1920"
     inkscape:window-height="1001"
     inkscape:window-x="-9"
     inkscape:window-y="-9"
     inkscape:window-maximized="1"
     inkscape:current-layer="layer1" />
  <defs
     id="defs275" />
  <g
     inkscape:label="Warstwa 1"
     inkscape:groupmode="layer"
     id="layer1">
    <path
       style="display:inline;fill:none;stroke:#000000;stroke-width:1.562;stroke-linecap:square;stroke-dasharray:none;stroke-opacity:1"
       d="m 154.2195,100.59553 h 9.97487"
       id="path2181-4-1"
       sodipodi:nodetypes="cc" />
    <path
       style="display:inline;fill:none;stroke:#000000;stroke-width:1.562;stroke-linecap:square;stroke-dasharray:none;stroke-opacity:1"
       d="m 154.2195,90.62065 h 9.97487"
       id="path2181-4-5-8"
       sodipodi:nodetypes="cc" />
    <path
       d="m 154.2195,80.64577 h 9.97487"
       style="display:inline;fill:none;stroke:#000000;stroke-width:1.562;stroke-linecap:square;stroke-dasharray:none;stroke-opacity:1"
       id="path2386-0"
       sodipodi:nodetypes="cc" />
    <path
       d="m 154.2195,70.67089 h 9.97487"
       style="display:inline;fill:none;stroke:#000000;stroke-width:1.562;stroke-linecap:square;stroke-dasharray:none;stroke-opacity:1"
       id="path2386-2-0"
       sodipodi:nodetypes="cc" />
    <path
       d="m 154.2195,110.57041 h 9.97487"
       style="display:inline;fill:none;stroke:#000000;stroke-width:1.562;stroke-linecap:square;stroke-dasharray:none;stroke-opacity:1"
       id="path2386-29-7"
       sodipodi:nodetypes="cc" />
    <path
       d="m 154.2195,120.54529 h 9.97487"
       style="display:inline;fill:none;stroke:#000000;stroke-width:1.562;stroke-linecap:square;stroke-dasharray:none;stroke-opacity:1"
       id="path2386-8-2"
       sodipodi:nodetypes="cc" />
    <path
       d="m 154.2195,130.52017 h 9.97487"
       style="display:inline;fill:none;stroke:#000000;stroke-width:1.562;stroke-linecap:square;stroke-dasharray:none;stroke-opacity:1"
       id="path2386-3-9"
       sodipodi:nodetypes="cc" />
    <path
       d="m 84.395333,70.67088 h 9.97488 m 0,59.84929 h -9.97488 m 0,-49.87441 h 9.97488 m -9.97488,29.92464 h 9.97488 m -9.97486,-9.97488 h 9.97487 m -9.97489,19.94976 h 9.97488 m -9.97487,-29.92464 h 9.97488"
       style="display:inline;fill:none;stroke:#000000;stroke-width:1.562;stroke-linecap:square;stroke-dasharray:none;stroke-opacity:1"
       id="path2835"
       sodipodi:nodetypes="cccccccccccccc" />
    <path
       style="display:inline;fill:#2a7fff;stroke:#000000;stroke-width:1.562;stroke-linecap:square;stroke-dasharray:none;stroke-opacity:1"
       d="M 94.370213,130.52017 V 70.67088 l 59.849287,1e-5 0.18309,59.84928 z"
       id="path2790"
       sodipodi:nodetypes="ccccc" />
    <path
       d="m 134.26974,60.69601 v 9.97487 m 9.97488,-9.97487 v 9.97487 m -19.94977,-9.97487 v 9.97487 m -19.94976,-9.97487 v 9.97487 m 9.97488,-9.97487 v 9.97487 M 94.370213,60.69601 v 9.97487 M 154.2195,60.69601 v 9.97487"
       style="display:inline;fill:none;stroke:#000000;stroke-width:1.562;stroke-linecap:square;stroke-dasharray:none;stroke-opacity:1"
       id="path2891-7"
       sodipodi:nodetypes="cccccccccccccc" />
    <path
       style="display:inline;fill:none;stroke:#000000;stroke-width:1.562;stroke-linecap:square;stroke-dasharray:none;stroke-opacity:1"
       d="m 12.436933,21.464943 c 0,0 -6.32096,-0.257998 -6.32096,6.062964 V 173.29701 c 0,6.32096 6.32096,6.06296 6.32096,6.06296 H 284.56307 c 0,0 6.32096,0.258 6.32096,-6.06295 V 27.527898 c 0,-6.320955 -6.32096,-6.062955 -6.32096,-6.062955 z"
       id="path921"
       sodipodi:nodetypes="csccccccc" />
    <path
       d="m 16.090833,169.3851 c 0,0 -6.32096,0.258 -6.32096,-6.06295 V 37.502757 c 0,-6.320955 6.32096,-6.062955 6.32096,-6.062955 l 216.408047,9e-6 c 0,0 6.32096,-0.258 6.32096,6.062955 V 163.32215 c 0,6.32095 -6.32096,6.06295 -6.32096,6.06295 z"
       style="display:inline;fill:none;stroke:#000000;stroke-width:1.562;stroke-linecap:square;stroke-dasharray:none;stroke-opacity:1"
       id="path2003"
       sodipodi:nodetypes="csscccscc" />
    <ellipse
       style="display:inline;fill:#2a7fff;fill-opacity:1;stroke:#000000;stroke-width:1.562;stroke-linecap:square;stroke-dasharray:none;stroke-opacity:1"
       id="path2142"
       cx="262.36038"
       cy="74.323662"
       rx="12.739187"
       ry="12.2855" />
    <ellipse
       style="display:inline;fill:#2a7fff;fill-opacity:1;stroke:#000000;stroke-width:1.562;stroke-linecap:square;stroke-dasharray:none;stroke-opacity:1"
       id="path2142-2"
       cx="262.36038"
       cy="123.60136"
       rx="12.739187"
       ry="12.2855" />
    <path
       d="m 134.26974,130.52017 v 9.97487 m 9.97488,-9.97487 v 9.97487 m -19.94977,-9.97487 v 9.97487 m -19.94976,-9.97487 v 9.97487 m 9.97488,-9.97487 v 9.97487 m -19.949757,-9.97487 v 9.97487 m 59.849287,-9.97487 v 9.97487"
       style="display:inline;fill:none;stroke:#000000;stroke-width:1.562;stroke-linecap:square;stroke-dasharray:none;stroke-opacity:1"
       id="path2891"
       sodipodi:nodetypes="cccccccccccccc" />
  </g>
</svg>
